<?xml version="1.0" encoding="utf-8"?>
<!-- Generator: Adobe Illustrator 24.3.0, SVG Export Plug-In . SVG Version: 6.00 Build 0)  -->
<svg version="1.1" xmlns="http://www.w3.org/2000/svg" xmlns:xlink="http://www.w3.org/1999/xlink" x="0px" y="0px"
	 viewBox="0 0 320 100" style="enable-background:new 0 0 320 100;" xml:space="preserve">
<style type="text/css">
	.st0{fill:#FFFF06;}
	.st1{fill:none;stroke:#FF0000;stroke-miterlimit:10;}
	.st2{fill:none;}
	.st3{font-family:'HGSKyokashotai';}
	.st4{font-size:36px;}
	.st5{font-family:'KozGoPr6N-Bold-90ms-RKSJ-H';}
	.st6{font-size:60px;}
</style>
<g id="レイヤー_1">
	<rect class="st0" width="320" height="100"/>
</g>
<g id="レイヤー_2">
	<polyline class="st1" points="0.52,99.57 0.52,90.63 12.41,90.63 12.41,99.1 2.77,99.1 2.77,92.4 10.44,92.4 10.44,97.13 
		4.34,97.13 4.34,94.27 	"/>
	<polyline class="st1" points="14.23,99.57 14.23,90.63 26.12,90.63 26.12,99.1 16.47,99.1 16.47,92.4 24.15,92.4 24.15,97.13 
		18.04,97.13 18.04,94.27 	"/>
	<polyline class="st1" points="28.31,99.57 28.31,90.63 40.2,90.63 40.2,99.1 30.55,99.1 30.55,92.4 38.23,92.4 38.23,97.13 
		32.13,97.13 32.13,94.27 	"/>
	<polyline class="st1" points="42.4,99.57 42.4,90.63 54.29,90.63 54.29,99.1 44.64,99.1 44.64,92.4 52.32,92.4 52.32,97.13 
		46.21,97.13 46.21,94.27 	"/>
	<polyline class="st1" points="56.1,99.57 56.1,90.63 67.99,90.63 67.99,99.1 58.34,99.1 58.34,92.4 66.02,92.4 66.02,97.13 
		59.92,97.13 59.92,94.27 	"/>
	<polyline class="st1" points="70.18,99.57 70.18,90.63 82.07,90.63 82.07,99.1 72.43,99.1 72.43,92.4 80.1,92.4 80.1,97.13 
		74,97.13 74,94.27 	"/>
	<polyline class="st1" points="84.27,99.57 84.27,90.63 96.16,90.63 96.16,99.1 86.51,99.1 86.51,92.4 94.19,92.4 94.19,97.13 
		88.09,97.13 88.09,94.27 	"/>
	<polyline class="st1" points="97.97,99.57 97.97,90.63 109.86,90.63 109.86,99.1 100.21,99.1 100.21,92.4 107.89,92.4 
		107.89,97.13 101.79,97.13 101.79,94.27 	"/>
	<polyline class="st1" points="112.05,99.57 112.05,90.63 123.95,90.63 123.95,99.1 114.3,99.1 114.3,92.4 121.98,92.4 
		121.98,97.13 115.87,97.13 115.87,94.27 	"/>
	<polyline class="st1" points="126.14,99.57 126.14,90.63 138.03,90.63 138.03,99.1 128.38,99.1 128.38,92.4 136.06,92.4 
		136.06,97.13 129.96,97.13 129.96,94.27 	"/>
	<polyline class="st1" points="139.84,99.57 139.84,90.63 151.73,90.63 151.73,99.1 142.09,99.1 142.09,92.4 149.76,92.4 
		149.76,97.13 143.66,97.13 143.66,94.27 	"/>
	<polyline class="st1" points="153.93,99.57 153.93,90.63 165.82,90.63 165.82,99.1 156.17,99.1 156.17,92.4 163.85,92.4 
		163.85,97.13 157.75,97.13 157.75,94.27 	"/>
	<polyline class="st1" points="168.01,99.57 168.01,90.63 179.9,90.63 179.9,99.1 170.26,99.1 170.26,92.4 177.93,92.4 
		177.93,97.13 171.83,97.13 171.83,94.27 	"/>
	<polyline class="st1" points="181.71,99.57 181.71,90.63 193.6,90.63 193.6,99.1 183.96,99.1 183.96,92.4 191.64,92.4 
		191.64,97.13 185.53,97.13 185.53,94.27 	"/>
	<polyline class="st1" points="195.8,99.57 195.8,90.63 207.69,90.63 207.69,99.1 198.04,99.1 198.04,92.4 205.72,92.4 
		205.72,97.13 199.62,97.13 199.62,94.27 	"/>
	<polyline class="st1" points="209.88,99.57 209.88,90.63 221.77,90.63 221.77,99.1 212.13,99.1 212.13,92.4 219.81,92.4 
		219.81,97.13 213.7,97.13 213.7,94.27 	"/>
	<polyline class="st1" points="223.59,99.57 223.59,90.63 235.48,90.63 235.48,99.1 225.83,99.1 225.83,92.4 233.51,92.4 
		233.51,97.13 227.41,97.13 227.41,94.27 	"/>
	<polyline class="st1" points="237.67,99.57 237.67,90.63 249.56,90.63 249.56,99.1 239.92,99.1 239.92,92.4 247.59,92.4 
		247.59,97.13 241.49,97.13 241.49,94.27 	"/>
	<polyline class="st1" points="251.76,99.57 251.76,90.63 263.65,90.63 263.65,99.1 254,99.1 254,92.4 261.68,92.4 261.68,97.13 
		255.58,97.13 255.58,94.27 	"/>
	<polyline class="st1" points="265.46,99.57 265.46,90.63 277.35,90.63 277.35,99.1 267.7,99.1 267.7,92.4 275.38,92.4 
		275.38,97.13 269.28,97.13 269.28,94.27 	"/>
	<polyline class="st1" points="279.54,99.57 279.54,90.63 291.43,90.63 291.43,99.1 281.79,99.1 281.79,92.4 289.47,92.4 
		289.47,97.13 283.36,97.13 283.36,94.27 	"/>
	<polyline class="st1" points="293.63,99.57 293.63,90.63 305.52,90.63 305.52,99.1 295.87,99.1 295.87,92.4 303.55,92.4 
		303.55,97.13 297.45,97.13 297.45,94.27 	"/>
	<polyline class="st1" points="307.43,99.57 307.43,90.63 319.32,90.63 319.32,99.1 309.67,99.1 309.67,92.4 317.35,92.4 
		317.35,97.13 311.24,97.13 311.24,94.27 	"/>
	<polyline class="st1" points="1.43,10.72 1.43,1.78 13.32,1.78 13.32,10.25 3.67,10.25 3.67,3.55 11.35,3.55 11.35,8.28 5.25,8.28 
		5.25,5.42 	"/>
	<polyline class="st1" points="15.13,10.72 15.13,1.78 27.02,1.78 27.02,10.25 17.38,10.25 17.38,3.55 25.05,3.55 25.05,8.28 
		18.95,8.28 18.95,5.42 	"/>
	<polyline class="st1" points="29.22,10.72 29.22,1.78 41.11,1.78 41.11,10.25 31.46,10.25 31.46,3.55 39.14,3.55 39.14,8.28 
		33.04,8.28 33.04,5.42 	"/>
	<polyline class="st1" points="43.3,10.72 43.3,1.78 55.19,1.78 55.19,10.25 45.55,10.25 45.55,3.55 53.22,3.55 53.22,8.28 
		47.12,8.28 47.12,5.42 	"/>
	<polyline class="st1" points="57,10.72 57,1.78 68.89,1.78 68.89,10.25 59.25,10.25 59.25,3.55 66.93,3.55 66.93,8.28 60.82,8.28 
		60.82,5.42 	"/>
	<polyline class="st1" points="71.09,10.72 71.09,1.78 82.98,1.78 82.98,10.25 73.33,10.25 73.33,3.55 81.01,3.55 81.01,8.28 
		74.91,8.28 74.91,5.42 	"/>
	<polyline class="st1" points="85.17,10.72 85.17,1.78 97.06,1.78 97.06,10.25 87.42,10.25 87.42,3.55 95.1,3.55 95.1,8.28 
		88.99,8.28 88.99,5.42 	"/>
	<polyline class="st1" points="98.88,10.72 98.88,1.78 110.77,1.78 110.77,10.25 101.12,10.25 101.12,3.55 108.8,3.55 108.8,8.28 
		102.7,8.28 102.7,5.42 	"/>
	<polyline class="st1" points="112.96,10.72 112.96,1.78 124.85,1.78 124.85,10.25 115.21,10.25 115.21,3.55 122.88,3.55 
		122.88,8.28 116.78,8.28 116.78,5.42 	"/>
	<polyline class="st1" points="127.05,10.72 127.05,1.78 138.94,1.78 138.94,10.25 129.29,10.25 129.29,3.55 136.97,3.55 
		136.97,8.28 130.87,8.28 130.87,5.42 	"/>
	<polyline class="st1" points="140.75,10.72 140.75,1.78 152.64,1.78 152.64,10.25 142.99,10.25 142.99,3.55 150.67,3.55 
		150.67,8.28 144.57,8.28 144.57,5.42 	"/>
	<polyline class="st1" points="154.83,10.72 154.83,1.78 166.72,1.78 166.72,10.25 157.08,10.25 157.08,3.55 164.75,3.55 
		164.75,8.28 158.65,8.28 158.65,5.42 	"/>
	<polyline class="st1" points="168.92,10.72 168.92,1.78 180.81,1.78 180.81,10.25 171.16,10.25 171.16,3.55 178.84,3.55 
		178.84,8.28 172.74,8.28 172.74,5.42 	"/>
	<polyline class="st1" points="182.62,10.72 182.62,1.78 194.51,1.78 194.51,10.25 184.86,10.25 184.86,3.55 192.54,3.55 
		192.54,8.28 186.44,8.28 186.44,5.42 	"/>
	<polyline class="st1" points="196.71,10.72 196.71,1.78 208.6,1.78 208.6,10.25 198.95,10.25 198.95,3.55 206.63,3.55 206.63,8.28 
		200.52,8.28 200.52,5.42 	"/>
	<polyline class="st1" points="210.79,10.72 210.79,1.78 222.68,1.78 222.68,10.25 213.04,10.25 213.04,3.55 220.71,3.55 
		220.71,8.28 214.61,8.28 214.61,5.42 	"/>
	<polyline class="st1" points="224.49,10.72 224.49,1.78 236.38,1.78 236.38,10.25 226.74,10.25 226.74,3.55 234.41,3.55 
		234.41,8.28 228.31,8.28 228.31,5.42 	"/>
	<polyline class="st1" points="238.58,10.72 238.58,1.78 250.47,1.78 250.47,10.25 240.82,10.25 240.82,3.55 248.5,3.55 248.5,8.28 
		242.4,8.28 242.4,5.42 	"/>
	<polyline class="st1" points="252.66,10.72 252.66,1.78 264.55,1.78 264.55,10.25 254.91,10.25 254.91,3.55 262.58,3.55 
		262.58,8.28 256.48,8.28 256.48,5.42 	"/>
	<polyline class="st1" points="266.37,10.72 266.37,1.78 278.26,1.78 278.26,10.25 268.61,10.25 268.61,3.55 276.29,3.55 
		276.29,8.28 270.18,8.28 270.18,5.42 	"/>
	<polyline class="st1" points="280.45,10.72 280.45,1.78 292.34,1.78 292.34,10.25 282.69,10.25 282.69,3.55 290.37,3.55 
		290.37,8.28 284.27,8.28 284.27,5.42 	"/>
	<polyline class="st1" points="294.54,10.72 294.54,1.78 306.43,1.78 306.43,10.25 296.78,10.25 296.78,3.55 304.46,3.55 
		304.46,8.28 298.35,8.28 298.35,5.42 	"/>
	<polyline class="st1" points="308.11,10.72 308.11,1.78 320,1.78 320,10.25 310.35,10.25 310.35,3.55 318.03,3.55 318.03,8.28 
		311.93,8.28 311.93,5.42 	"/>
</g>
<g id="レイヤー_3">
	<rect x="14.23" y="25.13" class="st2" width="147.89" height="51.57"/>
	<text transform="matrix(1 0 0 1 14.2251 66.3838)" class="st3 st4">中華料理</text>
</g>
<g id="レイヤー_4">
	<rect x="177.34" y="18.74" class="st2" width="150.64" height="70.47"/>
	<text transform="matrix(1 0 0 1 177.3439 71.5451)" class="st5 st6">岡 本</text>
</g>
</svg>
